<svg xmlns="http://www.w3.org/2000/svg"
    xmlns:xlink="http://www.w3.org/1999/xlink" width="388px" height="810px" viewBox="0 0 388 810" version="1.1">
    <title>Phone Frame</title>
    <defs>
        <path d="M59.5413714,0 L328.458629,0 C349.2,0 356.671771,2.15062857 364.243314,6.18582857 C371.714202,10.1412901 377.827097,16.2464616 381.792,23.7123429 C385.849371,31.2728 388,38.8 388,59.4194286 L388,749.837714 C388,770.501486 385.849371,777.984343 381.792,785.5448 C377.827097,793.010681 371.714202,799.115853 364.243314,803.071314 C356.671771,807.106514 349.166743,809.257143 328.458629,809.257143 L59.5413714,809.257143 C38.8332571,809.257143 31.3282286,807.106514 23.7566857,803.071314 C16.2857979,799.115853 10.1729033,793.010681 6.208,785.5448 C2.15062857,777.984343 0,770.457143 0,749.837714 L0,59.4194286 C0,38.8 2.15062857,31.2728 6.208,23.7123429 C10.1729033,16.2464616 16.2857979,10.1412901 23.7566857,6.18582857 C31.3282286,2.15062857 38.8,0 59.5413714,0 Z M59.0203429,12.5442963 C43.5003429,12.5442963 37.3810286,14.2562286 31.3836571,17.46 C25.463734,20.5799992 20.6227091,25.413297 17.4932571,31.3282286 C14.2894857,37.3034286 12.5822857,43.2342857 12.5822857,59.5968 L12.5822857,749.660343 C12.5822857,766.022857 14.2894857,771.953714 17.4932571,777.928914 C20.6227091,783.843846 25.463734,788.677144 31.3836571,791.797143 C37.3810286,795.000914 43.3229714,796.708114 59.7076571,796.708114 L328.292343,796.708114 C344.677029,796.708114 350.618971,795.000914 356.616343,791.797143 C362.536266,788.677144 367.377291,783.843846 370.506743,777.928914 C373.710514,771.953714 375.417714,766.022857 375.417714,749.660343 L375.417714,59.5968 C375.417714,43.2342857 373.710514,37.3034286 370.506743,31.3282286 C367.377291,25.413297 362.536266,20.5799992 356.616343,17.46 C350.618971,14.2562286 344.422057,12.5442963 328.979657,12.5442963 L300.422857,12.5442963 C297.624268,12.4295957 295.251072,14.5852482 295.101714,17.3824 L295.101714,20.7635429 C295.101714,30.4192 286.876114,41.5270857 274.293829,41.5270857 L114.659543,41.5270857 C102.077257,41.5270857 92.8872,31.8714286 92.8872,20.7635429 L92.8872,17.3824 C92.7378296,14.5897476 90.3714956,12.4358402 87.5771429,12.5442963 L59.0203429,12.5442963 Z" id="path-1"/>
        <path d="M59.5413714,0 L328.458629,0 C349.2,0 356.671771,2.15062857 364.243314,6.18582857 C371.714202,10.1412901 377.827097,16.2464616 381.792,23.7123429 C385.849371,31.2728 388,38.8 388,59.4194286 L388,749.837714 C388,770.501486 385.849371,777.984343 381.792,785.5448 C377.827097,793.010681 371.714202,799.115853 364.243314,803.071314 C356.671771,807.106514 349.166743,809.257143 328.458629,809.257143 L59.5413714,809.257143 C38.8332571,809.257143 31.3282286,807.106514 23.7566857,803.071314 C16.2857979,799.115853 10.1729033,793.010681 6.208,785.5448 C2.15062857,777.984343 0,770.457143 0,749.837714 L0,59.4194286 C0,38.8 2.15062857,31.2728 6.208,23.7123429 C10.1729033,16.2464616 16.2857979,10.1412901 23.7566857,6.18582857 C31.3282286,2.15062857 38.8,0 59.5413714,0 Z M59.0203429,12.5442963 C43.5003429,12.5442963 37.3810286,14.2562286 31.3836571,17.46 C25.463734,20.5799992 20.6227091,25.413297 17.4932571,31.3282286 C14.2894857,37.3034286 12.5822857,43.2342857 12.5822857,59.5968 L12.5822857,749.660343 C12.5822857,766.022857 14.2894857,771.953714 17.4932571,777.928914 C20.6227091,783.843846 25.463734,788.677144 31.3836571,791.797143 C37.3810286,795.000914 43.3229714,796.708114 59.7076571,796.708114 L328.292343,796.708114 C344.677029,796.708114 350.618971,795.000914 356.616343,791.797143 C362.536266,788.677144 367.377291,783.843846 370.506743,777.928914 C373.710514,771.953714 375.417714,766.022857 375.417714,749.660343 L375.417714,59.5968 C375.417714,43.2342857 373.710514,37.3034286 370.506743,31.3282286 C367.377291,25.413297 362.536266,20.5799992 356.616343,17.46 C350.618971,14.2562286 344.422057,12.5442963 328.979657,12.5442963 L300.422857,12.5442963 C297.624268,12.4295957 295.251072,14.5852482 295.101714,17.3824 L295.101714,20.7635429 C295.101714,30.4192 286.876114,41.5270857 274.293829,41.5270857 L114.659543,41.5270857 C102.077257,41.5270857 92.8872,31.8714286 92.8872,20.7635429 L92.8872,17.3824 C92.7378296,14.5897476 90.3714956,12.4358402 87.5771429,12.5442963 L59.0203429,12.5442963 Z" id="path-3"/>
    </defs>
    <g id="Phone-Frame" stroke="none" stroke-width="1" fill="none" fill-rule="evenodd">
        <g id="phone-frame-default">
            <g id="Clipped">
                <mask id="mask-2" fill="white">
                    <use xlink:href="#path-1"/>
                </mask>
                <g id="Shape"/>
                <path d="M164.002057,16.4179429 L208.5112,16.4179429 C210.378554,16.4179429 211.892343,17.9317321 211.892343,19.7990857 C211.892343,21.6664394 210.378554,23.1802286 208.5112,23.1802286 L164.002057,23.1802286 C162.134704,23.1802286 160.620914,21.6664394 160.620914,19.7990857 C160.620914,17.9317321 162.134704,16.4179429 164.002057,16.4179429 L164.002057,16.4179429 Z M224.973486,16.4179429 C226.802701,16.448434 228.263811,17.950637 228.243568,19.7799946 C228.223325,21.6093522 226.72933,23.0788546 224.899888,23.0689105 C223.070446,23.0588651 221.592597,21.5731267 221.592343,19.7436571 C221.622524,17.9022915 223.120796,16.4237336 224.9624,16.4179429 L224.973486,16.4179429 Z" id="Shape" fill="#FFFFFF" fill-rule="nonzero" opacity="0.25" mask="url(#mask-2)"/>
            </g>
            <path d="M59.5413714,0 L328.458629,0 C349.2,0 356.671771,2.15062857 364.243314,6.18582857 C371.714202,10.1412901 377.827097,16.2464616 381.792,23.7123429 C385.849371,31.2728 388,38.8 388,59.4194286 L388,749.837714 C388,770.501486 385.849371,777.984343 381.792,785.5448 C377.827097,793.010681 371.714202,799.115853 364.243314,803.071314 C356.671771,807.106514 349.166743,809.257143 328.458629,809.257143 L59.5413714,809.257143 C38.8332571,809.257143 31.3282286,807.106514 23.7566857,803.071314 C16.2857979,799.115853 10.1729033,793.010681 6.208,785.5448 C2.15062857,777.984343 0,770.457143 0,749.837714 L0,59.4194286 C0,38.8 2.15062857,31.2728 6.208,23.7123429 C10.1729033,16.2464616 16.2857979,10.1412901 23.7566857,6.18582857 C31.3282286,2.15062857 38.8,0 59.5413714,0 Z M59.0203429,12.5442963 C43.5003429,12.5442963 37.3810286,14.2562286 31.3836571,17.46 C25.463734,20.5799992 20.6227091,25.413297 17.4932571,31.3282286 C14.2894857,37.3034286 12.5822857,43.2342857 12.5822857,59.5968 L12.5822857,749.660343 C12.5822857,766.022857 14.2894857,771.953714 17.4932571,777.928914 C20.6227091,783.843846 25.463734,788.677144 31.3836571,791.797143 C37.3810286,795.000914 43.3229714,796.708114 59.7076571,796.708114 L328.292343,796.708114 C344.677029,796.708114 350.618971,795.000914 356.616343,791.797143 C362.536266,788.677144 367.377291,783.843846 370.506743,777.928914 C373.710514,771.953714 375.417714,766.022857 375.417714,749.660343 L375.417714,59.5968 C375.417714,43.2342857 373.710514,37.3034286 370.506743,31.3282286 C367.377291,25.413297 362.536266,20.5799992 356.616343,17.46 C350.618971,14.2562286 344.422057,12.5442963 328.979657,12.5442963 L300.422857,12.5442963 C297.624268,12.4295957 295.251072,14.5852482 295.101714,17.3824 L295.101714,20.7635429 C295.101714,30.4192 286.876114,41.5270857 274.293829,41.5270857 L114.659543,41.5270857 C102.077257,41.5270857 92.8872,31.8714286 92.8872,20.7635429 L92.8872,17.3824 C92.7378296,14.5897476 90.3714956,12.4358402 87.5771429,12.5442963 L59.0203429,12.5442963 Z" id="Shape" fill-rule="nonzero"/>
            <g id="Clipped">
                <mask id="mask-4" fill="white">
                    <use xlink:href="#path-3"/>
                </mask>
                <use id="Shape" fill="#FFFFFF" xlink:href="#path-3"/>
                <path d="M164.002057,16.4179429 L208.5112,16.4179429 C210.378554,16.4179429 211.892343,17.9317321 211.892343,19.7990857 C211.892343,21.6664394 210.378554,23.1802286 208.5112,23.1802286 L164.002057,23.1802286 C162.134704,23.1802286 160.620914,21.6664394 160.620914,19.7990857 C160.620914,17.9317321 162.134704,16.4179429 164.002057,16.4179429 L164.002057,16.4179429 Z M224.973486,16.4179429 C226.802701,16.448434 228.263811,17.950637 228.243568,19.7799946 C228.223325,21.6093522 226.72933,23.0788546 224.899888,23.0689105 C223.070446,23.0588651 221.592597,21.5731267 221.592343,19.7436571 C221.622524,17.9022915 223.120796,16.4237336 224.9624,16.4179429 L224.973486,16.4179429 Z" id="Shape" fill-opacity="0.2" fill="#000000" fill-rule="nonzero" mask="url(#mask-4)"/>
            </g>
        </g>
    </g>
</svg>